<?xml version="1.0" encoding="UTF-8" standalone="no"?>
<!DOCTYPE svg PUBLIC "-//W3C//DTD SVG 1.1//EN" "http://www.w3.org/Graphics/SVG/1.1/DTD/svg11.dtd">
<svg width="100%" height="100%" viewBox="0 0 512 512" version="1.1" xmlns="http://www.w3.org/2000/svg" xmlns:xlink="http://www.w3.org/1999/xlink" xml:space="preserve" xmlns:serif="http://www.serif.com/" style="fill-rule:evenodd;clip-rule:evenodd;stroke-linejoin:round;stroke-miterlimit:2;">
    <g transform="matrix(1,0,0,0.994175,-1,-0.994175)">
        <path d="M513,25.028C513,18.656 510.483,12.544 506.003,8.038C501.523,3.532 495.447,1 489.112,1L24.888,1C18.553,1 12.477,3.532 7.997,8.038C3.517,12.544 1,18.656 1,25.028L1,491.972C1,498.344 3.517,504.456 7.997,508.962C12.477,513.468 18.553,516 24.888,516L489.112,516C495.447,516 501.523,513.468 506.003,508.962C510.483,504.456 513,498.344 513,491.972L513,25.028Z"/>
    </g>
    <g transform="matrix(1.68284,0,0,1.68284,-176.692,-232.608)">
        <path id="path21" d="M255,382.886C255,384.64 253.621,386.084 251.868,386.165C246.256,386.417 241.288,387.157 240.305,388.342C237.906,391.232 239.341,393.237 245.711,395.899C249.835,397.622 250.863,398.825 250.483,401.486L250.483,401.486C249.938,405.312 247.954,405.827 239.88,404.238C229.833,402.26 227.39,398.909 219.053,375.658C215.519,365.804 213.376,361.452 213.328,364.033C213.285,366.302 212.849,368.158 212.36,368.158C211.87,368.158 204.65,361.725 196.316,353.863C187.981,346 179.55,339.163 177.579,338.668C172.247,337.33 169.366,341.219 168.569,350.832C167.73,360.949 165.306,361.61 161.353,352.801C157.646,344.543 157.587,318.273 161.253,308.472C164.152,300.719 161.892,301.538 157.698,309.76C156.043,313.004 153.932,315.658 153.006,315.658C150.581,315.658 152.553,299.065 156.331,287.686L159.392,278.465L156.432,266.686C151.724,247.952 149.713,227.05 150.765,207.781C152.003,185.098 154.184,177.783 159.74,177.681C160.422,177.668 195.601,210.081 198.78,212.037L204.561,215.594L222.03,213.124C231.172,211.832 240.03,211.072 248.878,210.846C250.488,210.811 252.045,211.426 253.196,212.553C254.348,213.679 254.997,215.222 254.997,216.833C255,244.925 255,362.018 255,382.886ZM216.664,321.519C229.438,327.842 244.414,323.421 233.794,316.462C231.122,314.712 229.17,314.533 225.186,315.676C214.863,318.636 204.25,311.339 204.25,301.28C204.25,298.545 203.294,295.767 202.126,295.107C200.958,294.447 197.827,291.208 195.167,287.908C195.167,287.908 193.761,286.163 192.465,284.556C192.205,284.233 191.762,284.125 191.383,284.293C191.004,284.46 190.785,284.86 190.848,285.269C191.035,286.485 191.201,287.565 191.201,287.565C193.182,300.433 204.466,315.481 216.664,321.519ZM164.126,248.657L164.126,248.657C165.733,252.583 167.114,251.59 175.002,240.844L182.022,231.28L173.725,215.344C169.161,206.579 164.881,199.745 164.214,200.158C162.684,201.103 162.605,244.942 164.126,248.657Z" style="fill:rgb(255,233,157);fill-rule:nonzero;"/>
    </g>
    <g transform="matrix(7.07455,0,0,7.07455,112.006,116)">
        <path d="M35.432,10.815L35.479,11.176L34.938,11.288L34.866,12.057L35.514,12.057L36.376,11.974L36.821,11.445L36.348,11.261L36.089,10.963L35.7,10.333L35.514,9.442L34.783,9.591L34.578,9.905L34.578,10.259L34.93,10.5L35.432,10.815Z" style="fill:rgb(255,233,157);fill-rule:nonzero;"/>
        <path d="M34.809,11.111L34.848,10.629L34.419,10.444L33.819,10.583L33.374,11.297L33.374,11.76L33.893,11.76L34.809,11.111Z" style="fill:rgb(255,233,157);fill-rule:nonzero;"/>
        <g transform="matrix(0.94186,0,0,0.94186,-1.97889,1.13081)">
            <path d="M48.619,24.061C48.612,23.35 48.576,22.644 48.509,21.949C48.284,19.632 47.73,17.411 46.9,15.329C46.838,15.174 46.781,15.017 46.715,14.864C45.609,12.251 44.056,9.872 42.155,7.819C42.03,7.685 41.903,7.553 41.776,7.423C41.417,7.05 41.048,6.686 40.666,6.337C36.627,2.66 31.349,0.321 25.54,0.031C25.22,0.016 24.908,0.134 24.677,0.355C24.445,0.577 24.314,0.883 24.314,1.203C24.312,7.931 24.313,40.821 24.313,47.457C24.313,47.768 24.44,48.066 24.665,48.282C24.889,48.497 25.192,48.612 25.503,48.599C34.428,48.164 42.101,42.892 45.96,35.357C46.822,33.675 47.493,31.882 47.945,30.003C48.06,29.526 48.159,29.047 48.245,28.562C48.49,27.181 48.624,25.761 48.624,24.312C48.625,24.228 48.62,24.145 48.619,24.061ZM44.043,14.344L44.184,14.186C44.369,14.545 44.542,14.91 44.707,15.28L44.477,15.271L44.043,15.331L44.043,14.344ZM40.53,10.102L40.534,9.016C40.916,9.421 41.284,9.838 41.636,10.27L41.198,10.922L39.667,10.908L39.571,10.589L40.53,10.102ZM45.592,18.139L43.813,18.139L42.729,17.332L41.588,17.443L41.588,18.139L41.227,18.139L40.837,17.861L38.861,17.36L38.861,16.08L36.357,16.275L35.581,16.692L34.587,16.692L34.1,16.643L32.893,17.313L32.893,18.574L30.426,20.354L30.631,21.114L31.131,21.114L31,21.838L30.648,21.967L30.629,23.859L32.761,26.287L33.689,26.287L33.745,26.139L35.413,26.139L35.894,25.694L36.84,25.694L37.359,26.214L38.769,26.36L38.582,28.235L40.147,30.998L39.323,32.573L39.379,33.315L40.028,33.962L40.028,35.746L40.88,36.892L40.88,38.374L41.616,38.374C37.52,43.403 32.418,46.929 25.443,46.929L25.443,1.696C31.085,1.696 35.109,4.109 39.042,7.574L38.777,8.048L37.748,8.451L37.314,8.922L37.414,9.471L37.945,9.545L38.265,10.345L39.181,9.976L39.332,11.046L39.056,11.046L38.304,10.935L37.47,11.075L36.663,12.215L35.509,12.396L35.342,13.384L35.829,13.499L35.688,14.134L34.542,13.904L33.491,14.134L33.268,14.719L33.45,15.947L34.067,16.236L35.102,16.23L35.801,16.167L36.014,15.611L37.106,14.192L37.825,14.339L38.533,13.699L38.665,14.199L40.407,15.374L40.194,15.66L39.409,15.618L39.711,16.046L40.194,16.152L40.76,15.916L40.748,15.234L40.999,15.108L40.797,14.894L39.635,14.246L39.329,13.385L40.295,13.385L40.604,13.691L41.436,14.408L41.471,15.275L42.333,16.193L42.654,14.935L43.251,14.609L43.363,15.638L43.946,16.278L45.109,16.258C45.334,16.837 45.536,17.426 45.713,18.027L45.592,18.139ZM45.954,19.265L46.024,19.183C46.053,19.309 46.084,19.435 46.112,19.563L45.954,19.265Z" style="fill:rgb(255,233,157);fill-rule:nonzero;"/>
        </g>
    </g>
</svg>
