<?xml version="1.0" encoding="UTF-8" standalone="no"?>
<!DOCTYPE svg PUBLIC "-//W3C//DTD SVG 1.1//EN" "http://www.w3.org/Graphics/SVG/1.1/DTD/svg11.dtd">
<svg width="100%" height="100%" viewBox="0 0 512 512" version="1.1" xmlns="http://www.w3.org/2000/svg" xmlns:xlink="http://www.w3.org/1999/xlink" xml:space="preserve" xmlns:serif="http://www.serif.com/" style="fill-rule:evenodd;clip-rule:evenodd;stroke-linejoin:round;stroke-miterlimit:2;">
    <g transform="matrix(1,0,0,0.994175,-1,-0.994175)">
        <path d="M513,25.028C513,18.656 510.483,12.544 506.003,8.038C501.523,3.532 495.447,1 489.112,1L24.888,1C18.553,1 12.477,3.532 7.997,8.038C3.517,12.544 1,18.656 1,25.028L1,491.972C1,498.344 3.517,504.456 7.997,508.962C12.477,513.468 18.553,516 24.888,516L489.112,516C495.447,516 501.523,513.468 506.003,508.962C510.483,504.456 513,498.344 513,491.972L513,25.028Z"/>
    </g>
    <g transform="matrix(1.69405,0,0,1.69405,-178.379,-238.081)">
        <g>
            <path id="path21" d="M255,382.906C255,384.649 253.629,386.084 251.888,386.164C246.268,386.415 241.289,387.156 240.305,388.342C237.906,391.232 239.341,393.237 245.711,395.899C249.835,397.622 250.863,398.825 250.483,401.486L250.483,401.486C249.938,405.312 247.954,405.827 239.88,404.238C229.833,402.26 227.39,398.909 219.053,375.658C215.519,365.804 213.376,361.452 213.328,364.033C213.285,366.302 212.849,368.158 212.36,368.158C211.87,368.158 204.65,361.725 196.316,353.863C187.981,346 179.55,339.163 177.579,338.668C172.247,337.33 169.366,341.219 168.569,350.832C167.73,360.949 165.306,361.61 161.353,352.801C157.646,344.543 157.587,318.273 161.253,308.472C164.152,300.719 161.892,301.538 157.698,309.76C156.043,313.004 153.932,315.658 153.006,315.658C150.581,315.658 152.553,299.065 156.331,287.686L159.392,278.465L156.432,266.686C151.724,247.952 149.713,227.05 150.765,207.781C152.003,185.098 154.184,177.783 159.74,177.681C160.422,177.668 195.601,210.081 198.78,212.037L204.561,215.594L222.03,213.124C231.186,211.83 240.057,211.07 248.919,210.845C250.519,210.81 252.065,211.422 253.209,212.541C254.352,213.66 254.997,215.192 254.997,216.792C255,244.821 255,362.086 255,382.906ZM216.664,321.519C229.438,327.842 244.414,323.421 233.794,316.462C231.122,314.712 229.17,314.533 225.186,315.676C214.863,318.636 204.25,311.339 204.25,301.28C204.25,298.545 203.294,295.767 202.126,295.107C200.958,294.447 197.827,291.208 195.167,287.908C195.167,287.908 193.751,286.15 192.451,284.538C192.193,284.218 191.752,284.111 191.376,284.277C191,284.443 190.782,284.84 190.845,285.247C191.033,286.472 191.201,287.565 191.201,287.565C193.182,300.433 204.466,315.481 216.664,321.519ZM164.126,248.657L164.126,248.657C165.733,252.583 167.114,251.59 175.002,240.844L182.022,231.28L173.725,215.344C169.161,206.579 164.881,199.745 164.214,200.158C162.684,201.103 162.605,244.942 164.126,248.657Z" style="fill:rgb(255,233,157);fill-rule:nonzero;"/>
        </g>
    </g>
    <g transform="matrix(1,0,0,1,-21.2917,16.1483)">
        <g transform="matrix(8.03632,0,0,8.03632,289.319,281.319)">
            <path d="M18.75,0.147C18.75,-0.348 18.348,-0.75 17.853,-0.75L0.147,-0.75C-0.348,-0.75 -0.75,-0.348 -0.75,0.147L-0.75,17.853C-0.75,18.348 -0.348,18.75 0.147,18.75L17.853,18.75C18.348,18.75 18.75,18.348 18.75,17.853L18.75,0.147ZM0.75,0.75L0.75,17.25L17.25,17.25L17.25,0.75L0.75,0.75Z" style="fill:rgb(255,233,157);"/>
        </g>
        <g transform="matrix(8.03632,0,0,8.03632,337.537,305.428)">
            <path d="M2,-0.75C0.482,-0.75 -0.75,0.482 -0.75,2C-0.75,3.518 0.482,4.75 2,4.75C3.518,4.75 4.75,3.518 4.75,2C4.75,0.482 3.518,-0.75 2,-0.75ZM2,0.75C2.69,0.75 3.25,1.31 3.25,2C3.25,2.69 2.69,3.25 2,3.25C1.31,3.25 0.75,2.69 0.75,2C0.75,1.31 1.31,0.75 2,0.75Z" style="fill:rgb(255,233,157);"/>
        </g>
        <g transform="matrix(8.03632,0,0,8.03632,291.135,352.352)">
            <path d="M8.496,4.034L13.679,-0.922L17.995,1.442L17.275,2.758L13.921,0.922L8.602,6.008L4.765,3.058L0.443,6.221L-0.443,5.011L4.787,1.184L8.496,4.034Z" style="fill:rgb(255,233,157);"/>
        </g>
    </g>
    <g transform="matrix(0.796885,0,0,0.796885,259.331,117.895)">
        <g transform="matrix(10.1409,0,0,10.1409,9.83341,9.85567)">
            <path d="M8.999,18.75C3.652,18.749 -0.748,14.348 -0.748,9C-0.748,3.651 3.654,-0.75 9.002,-0.75C14.351,-0.75 18.752,3.651 18.752,9C18.752,10.281 18.5,11.549 18.01,12.732L17.999,12.757C17.728,13.35 17.367,13.613 17.009,13.723C16.544,13.865 15.978,13.717 15.377,13.365C15.013,13.152 14.616,12.868 14.195,12.682C13.786,12.501 13.343,12.446 12.894,12.894C12.678,13.111 12.562,13.312 12.54,13.517C12.518,13.731 12.591,13.936 12.683,14.136C12.872,14.545 13.159,14.929 13.373,15.289C13.724,15.879 13.879,16.444 13.734,16.937C13.627,17.298 13.37,17.668 12.803,17.976L12.768,17.995L12.732,18.01C11.549,18.5 10.28,18.752 8.999,18.75L9,18.75L8.999,18.75L8.999,18.75ZM16.631,12.141C17.041,11.145 17.252,10.078 17.252,9C17.252,4.474 13.528,0.75 9.002,0.75C4.477,0.75 0.752,4.474 0.752,9C0.752,13.525 4.475,17.249 9,17.25L9.001,17.25C10.07,17.251 11.129,17.044 12.118,16.64C12.176,16.607 12.225,16.574 12.265,16.539C12.272,16.532 12.282,16.521 12.289,16.513C12.277,16.473 12.234,16.332 12.191,16.248C12.084,16.037 11.935,15.817 11.788,15.586C11.304,14.829 10.89,13.978 11.093,13.097C11.187,12.688 11.406,12.261 11.834,11.834C13.184,10.484 14.507,11.068 15.648,11.772C15.889,11.92 16.117,12.07 16.332,12.179C16.399,12.213 16.499,12.248 16.557,12.267C16.579,12.234 16.61,12.185 16.631,12.141Z" style="fill:rgb(255,233,157);"/>
        </g>
        <g transform="matrix(10.1409,0,0,10.1409,40.2561,101.124)">
            <path d="M2,-0.75C0.482,-0.75 -0.75,0.482 -0.75,2C-0.75,3.518 0.482,4.75 2,4.75C3.518,4.75 4.75,3.518 4.75,2C4.75,0.482 3.518,-0.75 2,-0.75ZM2,0.75C2.69,0.75 3.25,1.31 3.25,2C3.25,2.69 2.69,3.25 2,3.25C1.31,3.25 0.75,2.69 0.75,2C0.75,1.31 1.31,0.75 2,0.75Z" style="fill:rgb(255,233,157);"/>
        </g>
        <g transform="matrix(10.1409,0,0,10.1409,70.6788,50.4193)">
            <path d="M1.5,-0.75C0.258,-0.75 -0.75,0.258 -0.75,1.5C-0.75,2.742 0.258,3.75 1.5,3.75C2.742,3.75 3.75,2.742 3.75,1.5C3.75,0.258 2.742,-0.75 1.5,-0.75ZM1.5,0.75C1.914,0.75 2.25,1.086 2.25,1.5C2.25,1.914 1.914,2.25 1.5,2.25C1.086,2.25 0.75,1.914 0.75,1.5C0.75,1.086 1.086,0.75 1.5,0.75Z" style="fill:rgb(255,233,157);"/>
        </g>
        <g transform="matrix(10.1409,0,0,10.1409,121.383,50.4193)">
            <path d="M1,-0.75C0.034,-0.75 -0.75,0.034 -0.75,1C-0.75,1.966 0.034,2.75 1,2.75C1.966,2.75 2.75,1.966 2.75,1C2.75,0.034 1.966,-0.75 1,-0.75ZM1,0.75C1.138,0.75 1.25,0.862 1.25,1C1.25,1.138 1.138,1.25 1,1.25C0.862,1.25 0.75,1.138 0.75,1C0.75,0.862 0.862,0.75 1,0.75Z" style="fill:rgb(255,233,157);"/>
        </g>
    </g>
</svg>
